<?xml version="1.0" encoding="UTF-8"?>
<svg width="30px" height="30px" viewBox="0 0 30 30" version="1.1" xmlns="http://www.w3.org/2000/svg" xmlns:xlink="http://www.w3.org/1999/xlink">
    <!-- Generator: Sketch 59.1 (86144) - https://sketch.com -->
    <title>编组 2</title>
    <desc>Created with Sketch.</desc>
    <defs>
        <linearGradient x1="27.7636719%" y1="0%" x2="80.0455729%" y2="100%" id="linearGradient-1">
            <stop stop-color="#58B1FF" offset="0%"></stop>
            <stop stop-color="#1E88E5" offset="100%"></stop>
        </linearGradient>
        <linearGradient x1="23.2459435%" y1="5.92322716%" x2="89.0963041%" y2="92.0335036%" id="linearGradient-2">
            <stop stop-color="#1E88E5" offset="0%"></stop>
            <stop stop-color="#1279D3" offset="100%"></stop>
        </linearGradient>
        <polygon id="path-3" points="2.84217094e-14 -2.84217094e-14 22.79999 -2.84217094e-14 22.79999 17.299965 2.84217094e-14 17.299965"></polygon>
    </defs>
    <g id="新版深色SCADA" stroke="none" stroke-width="1" fill="none" fill-rule="evenodd">
        <g id="画板" transform="translate(-179.000000, -93.000000)">
            <g id="编组-2" transform="translate(179.000000, 93.000000)">
                <rect id="矩形备份-7" fill="url(#linearGradient-1)" x="0" y="0" width="30" height="30" rx="3"></rect>
                <rect id="矩形备份-30" fill="url(#linearGradient-2)" x="2" y="2" width="26" height="26" rx="2"></rect>
                <g id="编组-5备份-5" transform="translate(4.000000, 7.000000)">
                    <mask id="mask-4" fill="white">
                        <use xlink:href="#path-3"></use>
                    </mask>
                    <g id="Clip-2"></g>
                    <path d="M4.522305,5.789175 C4.555005,5.811025 4.570255,5.823575 4.587505,5.832325 C4.839255,5.960225 5.087305,6.096475 5.344055,6.213425 C6.039455,6.530275 6.731855,6.855125 7.438355,7.145425 C7.975455,7.366075 8.525605,7.560925 9.082055,7.726775 C9.752905,7.926775 10.448105,8.015525 11.145405,8.073025 C11.755905,8.123325 12.367855,8.132075 12.976455,8.059275 C13.500255,7.996575 14.026305,7.933775 14.541605,7.824975 C15.260755,7.673175 15.975855,7.496375 16.683505,7.297475 C17.476455,7.074475 18.237905,6.758625 18.992655,6.429325 C19.192205,6.342275 19.388605,6.247775 19.603805,6.148675 C19.563355,6.118825 19.546405,6.099975 19.525355,6.091675 C19.293405,6.000325 19.062755,5.905325 18.828055,5.821475 C18.252755,5.615975 17.676905,5.411825 17.098705,5.214575 C16.512755,5.014675 15.929605,4.802575 15.334255,4.634875 C14.779155,4.478525 14.210205,4.370625 13.646055,4.247425 C13.458155,4.206375 13.266155,4.183975 13.048955,4.148625 C13.077555,4.226025 13.089455,4.278475 13.114805,4.323375 C13.375105,4.785025 13.485255,5.285125 13.463605,5.808925 C13.433905,6.529075 13.015205,7.021725 12.460955,7.418875 C11.987705,7.757975 11.454905,7.887375 10.872755,7.873375 C10.232905,7.857975 9.648005,7.674875 9.121255,7.329875 C8.493555,6.918725 8.187955,6.301375 8.091955,5.569525 C8.052655,5.270025 8.054205,4.972925 8.124405,4.677775 C8.148355,4.576925 8.121105,4.533325 8.009955,4.569775 C7.729805,4.661575 7.446505,4.744225 7.168105,4.841025 C6.316505,5.137075 5.466555,5.438025 4.616305,5.737925 C4.587905,5.747925 4.562655,5.766875 4.522305,5.789175 M6.717855,8.319025 C6.717855,8.398325 6.717805,8.446575 6.717855,8.494875 C6.720005,10.387975 6.727955,12.281075 6.720755,14.174175 C6.718555,14.755775 6.676405,15.337275 6.648755,15.918675 C6.643605,16.026075 6.623605,16.133175 6.603805,16.239175 C6.596355,16.278975 6.569955,16.315225 6.538805,16.381525 C6.510255,16.322775 6.495605,16.295475 6.483355,16.267125 C6.254105,15.737525 6.053455,15.193275 5.789205,14.681775 C5.433005,13.992125 5.048255,13.315075 4.638605,12.655725 C4.149705,11.868725 3.623505,11.104425 3.038855,10.383725 C2.892605,10.203475 2.719955,10.044775 2.563255,9.872625 C2.535955,9.842625 2.528005,9.795075 2.511105,9.755625 C2.553205,9.754475 2.597405,9.744375 2.637105,9.753575 C3.045955,9.848025 3.450555,9.965875 3.863305,10.037025 C4.346505,10.120325 4.808505,10.021375 5.222105,9.750825 C5.441355,9.607425 5.529305,9.367525 5.585155,9.129275 C5.645505,8.871925 5.683255,8.606525 5.700905,8.342625 C5.726155,7.965425 5.538955,7.682625 5.244205,7.464775 C4.721105,7.078225 4.136305,6.810925 3.532405,6.579425 C2.993755,6.372975 2.437705,6.231475 1.867705,6.156675 C1.665955,6.130175 1.453855,6.166875 1.248105,6.189325 C0.863555,6.231275 0.839555,6.213925 0.851705,5.838875 C0.859255,5.606075 0.870505,5.373325 0.870305,5.140525 C0.870205,5.027075 0.922205,4.983375 1.022105,5.001875 C1.152255,5.026025 1.279305,5.066525 1.408555,5.096425 C1.468755,5.110325 1.531655,5.127425 1.592005,5.123425 C2.023355,5.094775 2.456855,5.080175 2.884705,5.023475 C3.282805,4.970725 3.685655,4.905875 4.067455,4.786125 C5.146005,4.447775 6.213605,4.074825 7.287955,3.722925 C7.864555,3.534025 8.441355,3.342875 9.026555,3.183925 C9.850305,2.960125 10.694105,2.905575 11.547805,2.900525 C12.588005,2.894325 13.590655,3.089975 14.584855,3.357975 C15.278955,3.545125 15.972855,3.734675 16.659555,3.946625 C17.314605,4.148825 17.957705,4.389325 18.610755,4.598475 C19.319155,4.825375 20.026155,5.062575 20.746705,5.244075 C21.280455,5.378525 21.834405,5.434025 22.380505,5.517125 C22.480155,5.532275 22.522155,5.573225 22.522405,5.666675 C22.523855,6.232475 22.525005,6.798275 22.5255051,7.364075 C22.5255051,7.468425 22.467055,7.480525 22.397405,7.427525 C22.255555,7.319525 22.120405,7.202675 21.982105,7.089975 C21.653305,6.821875 21.288505,6.741025 20.871855,6.844675 C20.270705,6.994275 19.716655,7.264975 19.144655,7.489475 C18.406055,7.779375 17.673605,8.085625 16.929805,8.361325 C16.513705,8.515575 16.084205,8.639275 15.653305,8.746875 C14.832555,8.951775 13.998905,9.088575 13.150905,9.100575 C12.452355,9.110425 11.752205,9.123475 11.055055,9.088525 C10.517205,9.061625 9.983105,8.961875 9.447155,8.895975 C9.318605,8.880125 9.189405,8.869975 9.060505,8.857225 C9.054305,8.871325 9.048155,8.885375 9.041955,8.899475 C9.109105,8.974725 9.174805,9.051325 9.243755,9.124925 C9.740905,9.655725 10.239405,10.185275 10.736155,10.716475 C11.085205,11.089775 11.429605,11.467525 11.780855,11.838725 C12.258055,12.343025 12.726905,12.856075 13.222305,13.341975 C14.260105,14.359925 15.450605,15.142875 16.842005,15.595725 C17.600555,15.842675 18.374005,15.928025 19.167405,15.785575 C20.352655,15.572825 21.141605,14.416975 20.875155,13.247625 C20.682755,12.403525 20.051155,12.126325 19.262505,12.322975 C19.234205,12.330025 19.209005,12.349375 19.148355,12.380325 C19.275405,12.424375 19.370105,12.450075 19.458755,12.489275 C19.774405,12.628725 19.957305,12.885225 20.049155,13.205525 C20.144755,13.538975 20.118155,13.881475 20.009955,14.201875 C19.851205,14.671925 19.516905,14.973025 19.008955,15.019875 C18.522305,15.064675 18.053505,15.004975 17.718255,14.590375 C17.527505,14.354475 17.415605,14.076575 17.360355,13.777275 C17.273155,13.305175 17.335655,12.848525 17.523705,12.411875 C17.699255,12.004275 17.987555,11.682275 18.355655,11.439475 C19.117605,10.936925 19.927955,10.941975 20.736555,11.287075 C21.257655,11.509525 21.596055,11.938025 21.824555,12.454675 C22.025505,12.909075 22.108205,13.387425 22.091055,13.877125 C22.054955,14.909225 21.609305,15.733275 20.755005,16.316225 C20.280655,16.639875 19.738655,16.801675 19.169555,16.875625 C18.563405,16.954325 17.957105,16.948325 17.352655,16.873175 C16.599005,16.779525 15.886955,16.542425 15.206605,16.208375 C14.410205,15.817425 13.695355,15.307575 13.024055,14.730125 C12.307405,14.113675 11.629705,13.457175 10.996155,12.757375 C10.547505,12.261875 10.129755,11.738575 9.694955,11.230525 C9.368105,10.848475 9.032955,10.473575 8.707055,10.090725 C8.271555,9.579175 7.780105,9.125975 7.266755,8.695425 C7.130055,8.580775 6.982005,8.479575 6.837755,8.374125 C6.812755,8.355825 6.780605,8.347325 6.717855,8.319025" id="Fill-3" fill="#FFFFFF" mask="url(#mask-4)"></path>
                    <path d="M21.1746,4.061315 C20.436,4.073465 19.5854,3.938415 18.7474,3.700965 C18.1675,3.536715 17.5809,3.396215 17.00025,3.234565 C16.26755,3.030565 15.5405,2.806015 14.8061,2.608615 C14.0672,2.410015 13.32435,2.221465 12.55555,2.175865 C12.0412,2.145365 11.525,2.084715 11.01235,2.105015 C10.48715,2.125815 9.9634,2.217115 9.4423,2.298365 C8.5377,2.439415 7.68515,2.768415 6.81875,3.047315 C6.26485,3.225615 5.7081,3.396365 5.14825,3.554965 C4.32305,3.788665 3.48605,3.976965 2.63,4.044715 C2.1798,4.080315 1.72465,4.054965 1.2718,4.055265 C1.21805,4.055315 1.1643,4.043565 1.1105,4.037815 C0.8282,4.007865 0.82505,4.078865 0.8183,3.712315 C0.81525,3.546615 0.82935,3.380515 0.8373,3.214665 C0.8418,3.120565 0.89685,3.084215 0.9869,3.089715 C1.23605,3.104915 1.4871,3.105065 1.73395,3.137315 C2.198,3.197915 2.6485,3.142715 3.0887,3.002415 C3.8885,2.747565 4.68665,2.487265 5.4825,2.220465 C6.54265,1.865015 7.5981,1.495415 8.65915,1.142765 C9.48235,0.869215 10.33355,0.756765 11.19905,0.722865 C12.40465,0.675765 13.56825,0.900465 14.71245,1.246165 C15.4881,1.480565 16.2567,1.738465 17.02645,1.991815 C17.9939,2.310265 18.95685,2.642615 19.92655,2.953965 C20.58135,3.164115 21.253,3.269165 21.94455,3.184115 C22.06395,3.169465 22.1857,3.174865 22.30595,3.166115 C22.38835,3.160065 22.4277,3.193865 22.44085,3.274415 C22.47165,3.463165 22.5127,3.650515 22.5361,3.840065 C22.5413,3.882065 22.5008,3.957365 22.4638,3.971565 C22.35385,4.013715 22.236,4.052215 22.11965,4.057465 C21.8497,4.069565 21.5788,4.061315 21.1746,4.061315" id="Fill-5" fill="#FFFFFF" mask="url(#mask-4)"></path>
                    <path d="M4.522305,5.789175 C4.562655,5.766875 4.587905,5.747925 4.616305,5.737925 C5.466555,5.438025 6.316505,5.137075 7.168105,4.841025 C7.446505,4.744225 7.729805,4.661575 8.009955,4.569775 C8.121105,4.533325 8.148355,4.576925 8.124405,4.677775 C8.054205,4.972925 8.052655,5.270025 8.091955,5.569525 C8.187955,6.301375 8.493555,6.918725 9.121255,7.329875 C9.648005,7.674875 10.232905,7.857975 10.872755,7.873375 C11.454905,7.887375 11.987705,7.757975 12.460955,7.418875 C13.015205,7.021725 13.433905,6.529075 13.463605,5.808925 C13.485255,5.285125 13.375105,4.785025 13.114805,4.323375 C13.089455,4.278475 13.077555,4.226025 13.048955,4.148625 C13.266155,4.183975 13.458155,4.206375 13.646055,4.247425 C14.210205,4.370625 14.779155,4.478525 15.334255,4.634875 C15.929605,4.802575 16.512755,5.014675 17.098705,5.214575 C17.676905,5.411825 18.252755,5.615975 18.828055,5.821475 C19.062755,5.905325 19.293405,6.000325 19.525355,6.091675 C19.546405,6.099975 19.563355,6.118825 19.603805,6.148675 C19.388605,6.247775 19.192205,6.342275 18.992655,6.429325 C18.237905,6.758625 17.476455,7.074475 16.683505,7.297475 C15.975855,7.496375 15.260755,7.673175 14.541605,7.824975 C14.026305,7.933775 13.500255,7.996575 12.976455,8.059275 C12.367855,8.132075 11.755905,8.123325 11.145405,8.073025 C10.448105,8.015525 9.752905,7.926775 9.082055,7.726775 C8.525605,7.560925 7.975455,7.366075 7.438355,7.145425 C6.731855,6.855125 6.039455,6.530275 5.344055,6.213425 C5.087305,6.096475 4.839255,5.960225 4.587505,5.832325 C4.570255,5.823575 4.555005,5.811025 4.522305,5.789175" id="Fill-7" fill="#1A83DE" mask="url(#mask-4)"></path>
                </g>
                <rect id="矩形备份-6" fill="#FFFFFF" x="0" y="0" width="30" height="30" rx="3"></rect>
                <g id="编组-7" transform="translate(2.500000, 6.000000)">
                    <path d="M4.2008235,5.7522527 C4.2379053,5.7770306 4.2551988,5.7912623 4.2747603,5.8011848 C4.5602448,5.9462234 4.8415335,6.1007309 5.132688,6.2333522 C5.9212716,6.5926601 6.7064532,6.96104 7.5076242,7.2902402 C8.1166956,7.5404573 8.7405657,7.7614172 9.37158,7.9494911 C10.1323239,8.1762911 10.9206807,8.2769336 11.7114189,8.3421386 C12.4037259,8.3991788 13.0976772,8.4091013 13.7878296,8.3265461 C14.3818188,8.2554443 14.9783595,8.1842291 15.5627097,8.0608499 C16.3782258,7.8887087 17.1891492,7.6882175 17.9916243,7.4626649 C18.8908296,7.2097829 19.7543139,6.851609 20.6102004,6.4781828 C20.8364901,6.3794681 21.0592077,6.2723051 21.3032445,6.1599257 C21.2573742,6.1260758 21.2381529,6.1046999 21.2142822,6.0952877 C20.9512509,5.9916968 20.6896938,5.8839668 20.423544,5.7888809 C19.7711538,5.5558439 19.1181399,5.3243378 18.4624611,5.1006563 C17.7979938,4.8739697 17.1367017,4.6334483 16.4615748,4.4432765 C15.8320914,4.2659756 15.1869021,4.143617 14.547156,4.0039082 C14.3340774,3.9573575 14.1163494,3.9319559 13.8700446,3.891869 C13.902477,3.9796406 13.9159716,4.0391189 13.9447185,4.0900355 C14.2398987,4.6135466 14.3648088,5.18066 14.3402577,5.7746492 C14.3065779,6.5912993 13.8317721,7.1499644 13.2032526,7.6003325 C12.6665871,7.9848719 12.0623919,8.1316115 11.4022338,8.1157355 C10.6766439,8.0982719 10.0133673,7.8906365 9.4160328,7.4994065 C8.704221,7.0331624 8.3576706,6.3330875 8.2488066,5.5031696 C8.2042404,5.1635366 8.2059981,4.8266252 8.2856049,4.4919251 C8.3127642,4.3775612 8.2818627,4.3281188 8.1558186,4.3694531 C7.8381285,4.4735543 7.5168663,4.5672794 7.2011607,4.6770506 C6.2354463,5.0127713 5.271603,5.3540486 4.3074195,5.6941352 C4.2752139,5.7054752 4.2465804,5.7269645 4.2008235,5.7522527 M6.6905772,8.6211026 C6.6905772,8.7110288 6.6905205,8.7657443 6.6905772,8.8205165 C6.6930153,10.9672919 6.7020306,13.1140673 6.6938658,15.2608427 C6.691371,15.9203771 6.6435729,16.5797981 6.6122178,17.2391057 C6.6063777,17.3608973 6.5836977,17.4823487 6.5612445,17.6025527 C6.5527962,17.6476859 6.5228586,17.6887934 6.4875345,17.7639776 C6.4551588,17.6973551 6.4385457,17.6663969 6.4246542,17.634248 C6.1646847,17.0336816 5.9371476,16.4165021 5.6374881,15.8364611 C5.2335573,15.054398 4.7972508,14.2866233 4.3327077,13.5389204 C3.7782951,12.6464624 3.1815843,11.7797462 2.5185912,10.9624724 C2.3527437,10.7580689 2.1569586,10.5781031 1.9792608,10.382885 C1.9483026,10.348865 1.9392873,10.2949433 1.9201227,10.250207 C1.9678641,10.2489029 2.0179869,10.2374495 2.0630067,10.2478823 C2.5266426,10.3549886 2.985459,10.4886305 3.4535175,10.5693146 C4.0014663,10.6637768 4.5253743,10.5515675 4.9943967,10.2447638 C5.2430262,10.0821482 5.3427615,9.8101016 5.4060954,9.5399261 C5.4745323,9.2480912 5.5173408,8.9471276 5.5373559,8.647865 C5.5659894,8.2201202 5.3537046,7.899425 5.0194581,7.6523831 C4.4262627,7.2140354 3.7630995,6.9109172 3.0782769,6.6483962 C2.4674478,6.4142819 1.8368871,6.2538209 1.1905071,6.1689977 C0.961722596,6.1389467 0.721201196,6.1805645 0.487880696,6.2060228 C0.0518009961,6.2535941 0.0245849961,6.2339192 0.0383630961,5.8086125 C0.0469247961,5.5446173 0.0596822961,5.2806788 0.0594554961,5.0166836 C0.0593420961,4.8880313 0.118310096,4.8384755 0.231596696,4.8594545 C0.379186796,4.8868406 0.523261496,4.9327676 0.669830996,4.9666742 C0.738097796,4.9824368 0.809426396,5.0018282 0.877863296,4.9972922 C1.3670142,4.9648031 1.8586032,4.9482467 2.3437851,4.8839489 C2.7952305,4.8241304 3.2520624,4.7505905 3.6850236,4.614794 C4.9080993,4.2311051 6.1187577,3.8081798 7.3370706,3.4091252 C7.990935,3.1949126 8.6450262,2.9781485 9.308643,2.7978992 C10.2427755,2.54411 11.1996447,2.4822503 12.1677405,2.4765236 C13.3473273,2.4694928 14.4843324,2.6913599 15.6117552,2.9952719 C16.3988646,3.2075 17.1857472,3.4224497 17.964465,3.662801 C18.7072917,3.8920958 19.4365671,4.1648228 20.1771258,4.4019989 C20.9804514,4.6593035 21.7821894,4.9282883 22.5992931,5.1341093 C23.2045656,5.2865756 23.8327449,5.3495126 24.4520223,5.443748 C24.5650254,5.4609281 24.6126534,5.5073654 24.6129369,5.6133377 C24.6145812,6.2549549 24.6158853,6.8965721 24.6164524,7.5381893 C24.6164524,7.6565222 24.55017,7.6702436 24.4711869,7.6101416 C24.310329,7.4876696 24.1570689,7.3551617 24.0002367,7.2273599 C23.6273775,6.9233345 23.2136943,6.8316506 22.7412132,6.9491897 C22.0595091,7.1188361 21.4312164,7.4258099 20.7825684,7.6803929 C19.944996,8.0091395 19.1143977,8.356427 18.2709285,8.6690708 C17.7990711,8.8439903 17.3120181,8.9842661 16.8233775,9.1062845 C15.892647,9.3386411 14.9472879,9.4937723 13.9856559,9.5073803 C13.1935002,9.5185502 12.3995301,9.5333489 11.608962,9.4937156 C10.9990401,9.463211 10.3933707,9.3500945 9.7856034,9.2753639 C9.6398277,9.25739 9.4933149,9.2458799 9.3471423,9.2314214 C9.3401115,9.2474108 9.3331374,9.2633435 9.3261066,9.2793329 C9.4022547,9.3646664 9.4767585,9.4515308 9.5549478,9.5349932 C10.1187159,10.1369204 10.6840149,10.7374301 11.2473294,11.3398109 C11.6431521,11.7631331 12.0337017,12.1915016 12.4320192,12.6124424 C12.973164,13.1843186 13.5048399,13.7661173 14.0666235,14.3171279 C15.2434887,15.4714832 16.5935157,16.3593485 18.1713633,16.8728804 C19.031559,17.1529217 19.9086513,17.2497086 20.8083669,17.0881703 C22.1524404,16.8469118 23.0471097,15.5361779 22.7449554,14.210135 C22.5267738,13.2529256 21.8105394,12.9385808 20.9162103,13.1615819 C20.8841181,13.1695766 20.8555413,13.1915195 20.7867642,13.2266168 C20.9308389,13.2765695 21.0382287,13.3057133 21.1387578,13.3501661 C21.4967049,13.5083024 21.7041135,13.7991734 21.8082714,14.1623936 C21.9166818,14.5405259 21.8865174,14.9289209 21.7638186,15.2922545 C21.5837961,15.8252912 21.2046999,16.1667386 20.6286846,16.2198665 C20.0768235,16.2706697 19.5452043,16.2029699 19.1650308,15.7328135 C18.9487203,15.4653029 18.8218257,15.1501643 18.7591722,14.8107581 C18.6602874,14.2753967 18.7311624,13.7575556 18.9444111,13.2623945 C19.1434848,12.8001761 19.470417,12.4350281 19.8878424,12.1596929 C20.7518937,11.5898012 21.6708306,11.5955279 22.587783,11.9868713 C23.1787104,12.2391296 23.562456,12.7250486 23.821575,13.3109297 C24.0494523,13.8262193 24.1432341,14.3686682 24.123786,14.923988 C24.0828486,16.0943894 23.5774815,17.0288621 22.6087053,17.6899274 C22.0707924,18.0569465 21.4561644,18.2404277 20.810805,18.324287 C20.1234309,18.4135328 19.4358867,18.4067288 18.7504404,18.3215087 C17.8958013,18.2153096 17.0883366,17.9464382 16.3168197,17.5676255 C15.4137021,17.1242882 14.6030622,16.5461183 13.841808,15.89129 C13.0291269,15.1922357 12.2606151,14.4477647 11.5421694,13.6541915 C11.0334003,13.0922945 10.5596718,12.4988723 10.0666086,11.9227436 C9.6959607,11.4894989 9.3159006,11.0643623 8.94633,10.6302104 C8.452473,10.0501127 7.8951687,9.5361839 7.3130298,9.0479402 C7.158012,8.9179271 6.9901233,8.8031663 6.8265438,8.683586 C6.7981938,8.6628338 6.7617357,8.6531948 6.6905772,8.6211026" id="Fill-3" fill="#272727"></path>
                    <path d="M23.084526,3.79285946 C22.2469536,3.80663756 21.2823732,3.65349086 20.3320812,3.38422256 C19.6744746,3.19796306 19.0092702,3.03863606 18.3508131,2.85532496 C17.5199313,2.62398896 16.6954566,2.36934926 15.862647,2.14549766 C15.0247344,1.92028526 14.1823425,1.70646956 13.3105233,1.65475916 C12.7272504,1.62017216 12.1418796,1.55139506 11.5605345,1.57441526 C10.9649577,1.59800246 10.3710252,1.70153666 9.78009783,1.79367416 C8.75428143,1.95362486 7.78748973,2.32671086 6.80499213,2.64298346 C6.17686953,2.84517566 5.54551503,3.03880616 4.91064513,3.21865856 C3.97486833,3.48367436 3.02571033,3.69720656 2.05494963,3.77403506 C1.54442283,3.81440546 1.02828273,3.78565856 0.514750826,3.78599876 C0.453798326,3.78605546 0.392845826,3.77273096 0.331836626,3.76621046 C0.0117084261,3.73224716 0.00813632611,3.81276116 0.000481826107,3.39709346 C-0.00297687389,3.20918966 0.0130125261,3.02083226 0.0220278261,2.83275836 C0.0271308261,2.72604896 0.0895575261,2.68482806 0.191674226,2.69106506 C0.474210326,2.70830186 0.758901026,2.70847196 1.03882893,2.74504346 C1.56506163,2.81376386 2.07592863,2.75116706 2.57511543,2.59206686 C3.48208863,2.30306696 4.38719073,2.00788676 5.28968463,1.70533556 C6.49189473,1.30225526 7.68877503,0.883128862 8.89200573,0.483223762 C9.82551453,0.173018062 10.7907753,0.0454997625 11.7722523,0.00705716249 C13.1394027,-0.0463542375 14.4589251,0.208455562 15.7564479,0.600479362 C16.636035,0.866288962 17.5076274,1.15874756 18.3805239,1.44604646 C19.4776122,1.80716876 20.5695975,2.18405366 21.6692373,2.53712456 C22.4117805,2.77543466 23.1734316,2.89456136 23.9576493,2.79811466 C24.0930489,2.78150156 24.2311134,2.78762516 24.3674769,2.77770266 C24.4609185,2.77084196 24.5055414,2.80917116 24.5204535,2.90051486 C24.5553807,3.11455736 24.6019314,3.32701226 24.628467,3.54196196 C24.6343638,3.58958996 24.5884368,3.67498016 24.5464788,3.69108296 C24.4217955,3.73888106 24.2881536,3.78254006 24.1562127,3.78849356 C23.8500894,3.80221496 23.5428888,3.79285946 23.084526,3.79285946" id="Fill-5" fill="#272727"></path>
                    <path d="M4.2008235,5.7522527 C4.2465804,5.7269645 4.2752139,5.7054752 4.3074195,5.6941352 C5.271603,5.3540486 6.2354463,5.0127713 7.2011607,4.6770506 C7.5168663,4.5672794 7.8381285,4.4735543 8.1558186,4.3694531 C8.2818627,4.3281188 8.3127642,4.3775612 8.2856049,4.4919251 C8.2059981,4.8266252 8.2042404,5.1635366 8.2488066,5.5031696 C8.3576706,6.3330875 8.704221,7.0331624 9.4160328,7.4994065 C10.0133673,7.8906365 10.6766439,8.0982719 11.4022338,8.1157355 C12.0623919,8.1316115 12.6665871,7.9848719 13.2032526,7.6003325 C13.8317721,7.1499644 14.3065779,6.5912993 14.3402577,5.7746492 C14.3648088,5.18066 14.2398987,4.6135466 13.9447185,4.0900355 C13.9159716,4.0391189 13.902477,3.9796406 13.8700446,3.891869 C14.1163494,3.9319559 14.3340774,3.9573575 14.547156,4.0039082 C15.1869021,4.143617 15.8320914,4.2659756 16.4615748,4.4432765 C17.1367017,4.6334483 17.7979938,4.8739697 18.4624611,5.1006563 C19.1181399,5.3243378 19.7711538,5.5558439 20.423544,5.7888809 C20.6896938,5.8839668 20.9512509,5.9916968 21.2142822,6.0952877 C21.2381529,6.1046999 21.2573742,6.1260758 21.3032445,6.1599257 C21.0592077,6.2723051 20.8364901,6.3794681 20.6102004,6.4781828 C19.7543139,6.851609 18.8908296,7.2097829 17.9916243,7.4626649 C17.1891492,7.6882175 16.3782258,7.8887087 15.5627097,8.0608499 C14.9783595,8.1842291 14.3818188,8.2554443 13.7878296,8.3265461 C13.0976772,8.4091013 12.4037259,8.3991788 11.7114189,8.3421386 C10.9206807,8.2769336 10.1323239,8.1762911 9.37158,7.9494911 C8.7405657,7.7614172 8.1166956,7.5404573 7.5076242,7.2902402 C6.7064532,6.96104 5.9212716,6.5926601 5.132688,6.2333522 C4.8415335,6.1007309 4.5602448,5.9462234 4.2747603,5.8011848 C4.2551988,5.7912623 4.2379053,5.7770306 4.2008235,5.7522527" id="Fill-7" fill="#FEFEFE"></path>
                </g>
            </g>
        </g>
    </g>
</svg>