<?xml version="1.0" encoding="UTF-8"?>
<svg width="30px" height="30px" viewBox="0 0 30 30" version="1.1" xmlns="http://www.w3.org/2000/svg" xmlns:xlink="http://www.w3.org/1999/xlink">
    <!-- Generator: Sketch 59.1 (86144) - https://sketch.com -->
    <title>编组</title>
    <desc>Created with Sketch.</desc>
    <defs>
        <linearGradient x1="27.7636719%" y1="0%" x2="80.0455729%" y2="100%" id="linearGradient-1">
            <stop stop-color="#58B1FF" offset="0%"></stop>
            <stop stop-color="#1E88E5" offset="100%"></stop>
        </linearGradient>
        <linearGradient x1="23.2459435%" y1="5.92322716%" x2="89.0963041%" y2="92.0335036%" id="linearGradient-2">
            <stop stop-color="#1E88E5" offset="0%"></stop>
            <stop stop-color="#1279D3" offset="100%"></stop>
        </linearGradient>
        <polygon id="path-3" points="2.84217094e-14 -2.84217094e-14 22.79999 -2.84217094e-14 22.79999 17.299965 2.84217094e-14 17.299965"></polygon>
        <polygon id="path-5" points="2.84217094e-14 -2.84217094e-14 22.79999 -2.84217094e-14 22.79999 17.299965 2.84217094e-14 17.299965"></polygon>
    </defs>
    <g id="新版深色SCADA" stroke="none" stroke-width="1" fill="none" fill-rule="evenodd">
        <g id="画板" transform="translate(-122.000000, -94.000000)">
            <g id="编组" transform="translate(122.000000, 94.000000)">
                <rect id="矩形备份-5" fill="url(#linearGradient-1)" x="0" y="0" width="30" height="30" rx="3"></rect>
                <rect id="矩形备份-28" fill="url(#linearGradient-2)" x="2" y="2" width="26" height="26" rx="2"></rect>
                <g id="编组-5备份-3" transform="translate(4.000000, 7.000000)">
                    <mask id="mask-4" fill="white">
                        <use xlink:href="#path-3"></use>
                    </mask>
                    <g id="Clip-2"></g>
                    <path d="M4.522305,5.789175 C4.555005,5.811025 4.570255,5.823575 4.587505,5.832325 C4.839255,5.960225 5.087305,6.096475 5.344055,6.213425 C6.039455,6.530275 6.731855,6.855125 7.438355,7.145425 C7.975455,7.366075 8.525605,7.560925 9.082055,7.726775 C9.752905,7.926775 10.448105,8.015525 11.145405,8.073025 C11.755905,8.123325 12.367855,8.132075 12.976455,8.059275 C13.500255,7.996575 14.026305,7.933775 14.541605,7.824975 C15.260755,7.673175 15.975855,7.496375 16.683505,7.297475 C17.476455,7.074475 18.237905,6.758625 18.992655,6.429325 C19.192205,6.342275 19.388605,6.247775 19.603805,6.148675 C19.563355,6.118825 19.546405,6.099975 19.525355,6.091675 C19.293405,6.000325 19.062755,5.905325 18.828055,5.821475 C18.252755,5.615975 17.676905,5.411825 17.098705,5.214575 C16.512755,5.014675 15.929605,4.802575 15.334255,4.634875 C14.779155,4.478525 14.210205,4.370625 13.646055,4.247425 C13.458155,4.206375 13.266155,4.183975 13.048955,4.148625 C13.077555,4.226025 13.089455,4.278475 13.114805,4.323375 C13.375105,4.785025 13.485255,5.285125 13.463605,5.808925 C13.433905,6.529075 13.015205,7.021725 12.460955,7.418875 C11.987705,7.757975 11.454905,7.887375 10.872755,7.873375 C10.232905,7.857975 9.648005,7.674875 9.121255,7.329875 C8.493555,6.918725 8.187955,6.301375 8.091955,5.569525 C8.052655,5.270025 8.054205,4.972925 8.124405,4.677775 C8.148355,4.576925 8.121105,4.533325 8.009955,4.569775 C7.729805,4.661575 7.446505,4.744225 7.168105,4.841025 C6.316505,5.137075 5.466555,5.438025 4.616305,5.737925 C4.587905,5.747925 4.562655,5.766875 4.522305,5.789175 M6.717855,8.319025 C6.717855,8.398325 6.717805,8.446575 6.717855,8.494875 C6.720005,10.387975 6.727955,12.281075 6.720755,14.174175 C6.718555,14.755775 6.676405,15.337275 6.648755,15.918675 C6.643605,16.026075 6.623605,16.133175 6.603805,16.239175 C6.596355,16.278975 6.569955,16.315225 6.538805,16.381525 C6.510255,16.322775 6.495605,16.295475 6.483355,16.267125 C6.254105,15.737525 6.053455,15.193275 5.789205,14.681775 C5.433005,13.992125 5.048255,13.315075 4.638605,12.655725 C4.149705,11.868725 3.623505,11.104425 3.038855,10.383725 C2.892605,10.203475 2.719955,10.044775 2.563255,9.872625 C2.535955,9.842625 2.528005,9.795075 2.511105,9.755625 C2.553205,9.754475 2.597405,9.744375 2.637105,9.753575 C3.045955,9.848025 3.450555,9.965875 3.863305,10.037025 C4.346505,10.120325 4.808505,10.021375 5.222105,9.750825 C5.441355,9.607425 5.529305,9.367525 5.585155,9.129275 C5.645505,8.871925 5.683255,8.606525 5.700905,8.342625 C5.726155,7.965425 5.538955,7.682625 5.244205,7.464775 C4.721105,7.078225 4.136305,6.810925 3.532405,6.579425 C2.993755,6.372975 2.437705,6.231475 1.867705,6.156675 C1.665955,6.130175 1.453855,6.166875 1.248105,6.189325 C0.863555,6.231275 0.839555,6.213925 0.851705,5.838875 C0.859255,5.606075 0.870505,5.373325 0.870305,5.140525 C0.870205,5.027075 0.922205,4.983375 1.022105,5.001875 C1.152255,5.026025 1.279305,5.066525 1.408555,5.096425 C1.468755,5.110325 1.531655,5.127425 1.592005,5.123425 C2.023355,5.094775 2.456855,5.080175 2.884705,5.023475 C3.282805,4.970725 3.685655,4.905875 4.067455,4.786125 C5.146005,4.447775 6.213605,4.074825 7.287955,3.722925 C7.864555,3.534025 8.441355,3.342875 9.026555,3.183925 C9.850305,2.960125 10.694105,2.905575 11.547805,2.900525 C12.588005,2.894325 13.590655,3.089975 14.584855,3.357975 C15.278955,3.545125 15.972855,3.734675 16.659555,3.946625 C17.314605,4.148825 17.957705,4.389325 18.610755,4.598475 C19.319155,4.825375 20.026155,5.062575 20.746705,5.244075 C21.280455,5.378525 21.834405,5.434025 22.380505,5.517125 C22.480155,5.532275 22.522155,5.573225 22.522405,5.666675 C22.523855,6.232475 22.525005,6.798275 22.5255051,7.364075 C22.5255051,7.468425 22.467055,7.480525 22.397405,7.427525 C22.255555,7.319525 22.120405,7.202675 21.982105,7.089975 C21.653305,6.821875 21.288505,6.741025 20.871855,6.844675 C20.270705,6.994275 19.716655,7.264975 19.144655,7.489475 C18.406055,7.779375 17.673605,8.085625 16.929805,8.361325 C16.513705,8.515575 16.084205,8.639275 15.653305,8.746875 C14.832555,8.951775 13.998905,9.088575 13.150905,9.100575 C12.452355,9.110425 11.752205,9.123475 11.055055,9.088525 C10.517205,9.061625 9.983105,8.961875 9.447155,8.895975 C9.318605,8.880125 9.189405,8.869975 9.060505,8.857225 C9.054305,8.871325 9.048155,8.885375 9.041955,8.899475 C9.109105,8.974725 9.174805,9.051325 9.243755,9.124925 C9.740905,9.655725 10.239405,10.185275 10.736155,10.716475 C11.085205,11.089775 11.429605,11.467525 11.780855,11.838725 C12.258055,12.343025 12.726905,12.856075 13.222305,13.341975 C14.260105,14.359925 15.450605,15.142875 16.842005,15.595725 C17.600555,15.842675 18.374005,15.928025 19.167405,15.785575 C20.352655,15.572825 21.141605,14.416975 20.875155,13.247625 C20.682755,12.403525 20.051155,12.126325 19.262505,12.322975 C19.234205,12.330025 19.209005,12.349375 19.148355,12.380325 C19.275405,12.424375 19.370105,12.450075 19.458755,12.489275 C19.774405,12.628725 19.957305,12.885225 20.049155,13.205525 C20.144755,13.538975 20.118155,13.881475 20.009955,14.201875 C19.851205,14.671925 19.516905,14.973025 19.008955,15.019875 C18.522305,15.064675 18.053505,15.004975 17.718255,14.590375 C17.527505,14.354475 17.415605,14.076575 17.360355,13.777275 C17.273155,13.305175 17.335655,12.848525 17.523705,12.411875 C17.699255,12.004275 17.987555,11.682275 18.355655,11.439475 C19.117605,10.936925 19.927955,10.941975 20.736555,11.287075 C21.257655,11.509525 21.596055,11.938025 21.824555,12.454675 C22.025505,12.909075 22.108205,13.387425 22.091055,13.877125 C22.054955,14.909225 21.609305,15.733275 20.755005,16.316225 C20.280655,16.639875 19.738655,16.801675 19.169555,16.875625 C18.563405,16.954325 17.957105,16.948325 17.352655,16.873175 C16.599005,16.779525 15.886955,16.542425 15.206605,16.208375 C14.410205,15.817425 13.695355,15.307575 13.024055,14.730125 C12.307405,14.113675 11.629705,13.457175 10.996155,12.757375 C10.547505,12.261875 10.129755,11.738575 9.694955,11.230525 C9.368105,10.848475 9.032955,10.473575 8.707055,10.090725 C8.271555,9.579175 7.780105,9.125975 7.266755,8.695425 C7.130055,8.580775 6.982005,8.479575 6.837755,8.374125 C6.812755,8.355825 6.780605,8.347325 6.717855,8.319025" id="Fill-3" fill="#FFFFFF" mask="url(#mask-4)"></path>
                    <path d="M21.1746,4.061315 C20.436,4.073465 19.5854,3.938415 18.7474,3.700965 C18.1675,3.536715 17.5809,3.396215 17.00025,3.234565 C16.26755,3.030565 15.5405,2.806015 14.8061,2.608615 C14.0672,2.410015 13.32435,2.221465 12.55555,2.175865 C12.0412,2.145365 11.525,2.084715 11.01235,2.105015 C10.48715,2.125815 9.9634,2.217115 9.4423,2.298365 C8.5377,2.439415 7.68515,2.768415 6.81875,3.047315 C6.26485,3.225615 5.7081,3.396365 5.14825,3.554965 C4.32305,3.788665 3.48605,3.976965 2.63,4.044715 C2.1798,4.080315 1.72465,4.054965 1.2718,4.055265 C1.21805,4.055315 1.1643,4.043565 1.1105,4.037815 C0.8282,4.007865 0.82505,4.078865 0.8183,3.712315 C0.81525,3.546615 0.82935,3.380515 0.8373,3.214665 C0.8418,3.120565 0.89685,3.084215 0.9869,3.089715 C1.23605,3.104915 1.4871,3.105065 1.73395,3.137315 C2.198,3.197915 2.6485,3.142715 3.0887,3.002415 C3.8885,2.747565 4.68665,2.487265 5.4825,2.220465 C6.54265,1.865015 7.5981,1.495415 8.65915,1.142765 C9.48235,0.869215 10.33355,0.756765 11.19905,0.722865 C12.40465,0.675765 13.56825,0.900465 14.71245,1.246165 C15.4881,1.480565 16.2567,1.738465 17.02645,1.991815 C17.9939,2.310265 18.95685,2.642615 19.92655,2.953965 C20.58135,3.164115 21.253,3.269165 21.94455,3.184115 C22.06395,3.169465 22.1857,3.174865 22.30595,3.166115 C22.38835,3.160065 22.4277,3.193865 22.44085,3.274415 C22.47165,3.463165 22.5127,3.650515 22.5361,3.840065 C22.5413,3.882065 22.5008,3.957365 22.4638,3.971565 C22.35385,4.013715 22.236,4.052215 22.11965,4.057465 C21.8497,4.069565 21.5788,4.061315 21.1746,4.061315" id="Fill-5" fill="#FFFFFF" mask="url(#mask-4)"></path>
                    <path d="M4.522305,5.789175 C4.562655,5.766875 4.587905,5.747925 4.616305,5.737925 C5.466555,5.438025 6.316505,5.137075 7.168105,4.841025 C7.446505,4.744225 7.729805,4.661575 8.009955,4.569775 C8.121105,4.533325 8.148355,4.576925 8.124405,4.677775 C8.054205,4.972925 8.052655,5.270025 8.091955,5.569525 C8.187955,6.301375 8.493555,6.918725 9.121255,7.329875 C9.648005,7.674875 10.232905,7.857975 10.872755,7.873375 C11.454905,7.887375 11.987705,7.757975 12.460955,7.418875 C13.015205,7.021725 13.433905,6.529075 13.463605,5.808925 C13.485255,5.285125 13.375105,4.785025 13.114805,4.323375 C13.089455,4.278475 13.077555,4.226025 13.048955,4.148625 C13.266155,4.183975 13.458155,4.206375 13.646055,4.247425 C14.210205,4.370625 14.779155,4.478525 15.334255,4.634875 C15.929605,4.802575 16.512755,5.014675 17.098705,5.214575 C17.676905,5.411825 18.252755,5.615975 18.828055,5.821475 C19.062755,5.905325 19.293405,6.000325 19.525355,6.091675 C19.546405,6.099975 19.563355,6.118825 19.603805,6.148675 C19.388605,6.247775 19.192205,6.342275 18.992655,6.429325 C18.237905,6.758625 17.476455,7.074475 16.683505,7.297475 C15.975855,7.496375 15.260755,7.673175 14.541605,7.824975 C14.026305,7.933775 13.500255,7.996575 12.976455,8.059275 C12.367855,8.132075 11.755905,8.123325 11.145405,8.073025 C10.448105,8.015525 9.752905,7.926775 9.082055,7.726775 C8.525605,7.560925 7.975455,7.366075 7.438355,7.145425 C6.731855,6.855125 6.039455,6.530275 5.344055,6.213425 C5.087305,6.096475 4.839255,5.960225 4.587505,5.832325 C4.570255,5.823575 4.555005,5.811025 4.522305,5.789175" id="Fill-7" fill="#1A83DE" mask="url(#mask-4)"></path>
                </g>
                <rect id="矩形备份-4" fill="url(#linearGradient-1)" x="0" y="0" width="30" height="30" rx="3"></rect>
                <rect id="矩形备份-27" fill="url(#linearGradient-2)" x="2" y="2" width="26" height="26" rx="2"></rect>
                <g id="编组-5备份-2" transform="translate(3.000000, 7.000000)">
                    <mask id="mask-6" fill="white">
                        <use xlink:href="#path-5"></use>
                    </mask>
                    <g id="Clip-2"></g>
                    <path d="M4.522305,5.789175 C4.555005,5.811025 4.570255,5.823575 4.587505,5.832325 C4.839255,5.960225 5.087305,6.096475 5.344055,6.213425 C6.039455,6.530275 6.731855,6.855125 7.438355,7.145425 C7.975455,7.366075 8.525605,7.560925 9.082055,7.726775 C9.752905,7.926775 10.448105,8.015525 11.145405,8.073025 C11.755905,8.123325 12.367855,8.132075 12.976455,8.059275 C13.500255,7.996575 14.026305,7.933775 14.541605,7.824975 C15.260755,7.673175 15.975855,7.496375 16.683505,7.297475 C17.476455,7.074475 18.237905,6.758625 18.992655,6.429325 C19.192205,6.342275 19.388605,6.247775 19.603805,6.148675 C19.563355,6.118825 19.546405,6.099975 19.525355,6.091675 C19.293405,6.000325 19.062755,5.905325 18.828055,5.821475 C18.252755,5.615975 17.676905,5.411825 17.098705,5.214575 C16.512755,5.014675 15.929605,4.802575 15.334255,4.634875 C14.779155,4.478525 14.210205,4.370625 13.646055,4.247425 C13.458155,4.206375 13.266155,4.183975 13.048955,4.148625 C13.077555,4.226025 13.089455,4.278475 13.114805,4.323375 C13.375105,4.785025 13.485255,5.285125 13.463605,5.808925 C13.433905,6.529075 13.015205,7.021725 12.460955,7.418875 C11.987705,7.757975 11.454905,7.887375 10.872755,7.873375 C10.232905,7.857975 9.648005,7.674875 9.121255,7.329875 C8.493555,6.918725 8.187955,6.301375 8.091955,5.569525 C8.052655,5.270025 8.054205,4.972925 8.124405,4.677775 C8.148355,4.576925 8.121105,4.533325 8.009955,4.569775 C7.729805,4.661575 7.446505,4.744225 7.168105,4.841025 C6.316505,5.137075 5.466555,5.438025 4.616305,5.737925 C4.587905,5.747925 4.562655,5.766875 4.522305,5.789175 M6.717855,8.319025 C6.717855,8.398325 6.717805,8.446575 6.717855,8.494875 C6.720005,10.387975 6.727955,12.281075 6.720755,14.174175 C6.718555,14.755775 6.676405,15.337275 6.648755,15.918675 C6.643605,16.026075 6.623605,16.133175 6.603805,16.239175 C6.596355,16.278975 6.569955,16.315225 6.538805,16.381525 C6.510255,16.322775 6.495605,16.295475 6.483355,16.267125 C6.254105,15.737525 6.053455,15.193275 5.789205,14.681775 C5.433005,13.992125 5.048255,13.315075 4.638605,12.655725 C4.149705,11.868725 3.623505,11.104425 3.038855,10.383725 C2.892605,10.203475 2.719955,10.044775 2.563255,9.872625 C2.535955,9.842625 2.528005,9.795075 2.511105,9.755625 C2.553205,9.754475 2.597405,9.744375 2.637105,9.753575 C3.045955,9.848025 3.450555,9.965875 3.863305,10.037025 C4.346505,10.120325 4.808505,10.021375 5.222105,9.750825 C5.441355,9.607425 5.529305,9.367525 5.585155,9.129275 C5.645505,8.871925 5.683255,8.606525 5.700905,8.342625 C5.726155,7.965425 5.538955,7.682625 5.244205,7.464775 C4.721105,7.078225 4.136305,6.810925 3.532405,6.579425 C2.993755,6.372975 2.437705,6.231475 1.867705,6.156675 C1.665955,6.130175 1.453855,6.166875 1.248105,6.189325 C0.863555,6.231275 0.839555,6.213925 0.851705,5.838875 C0.859255,5.606075 0.870505,5.373325 0.870305,5.140525 C0.870205,5.027075 0.922205,4.983375 1.022105,5.001875 C1.152255,5.026025 1.279305,5.066525 1.408555,5.096425 C1.468755,5.110325 1.531655,5.127425 1.592005,5.123425 C2.023355,5.094775 2.456855,5.080175 2.884705,5.023475 C3.282805,4.970725 3.685655,4.905875 4.067455,4.786125 C5.146005,4.447775 6.213605,4.074825 7.287955,3.722925 C7.864555,3.534025 8.441355,3.342875 9.026555,3.183925 C9.850305,2.960125 10.694105,2.905575 11.547805,2.900525 C12.588005,2.894325 13.590655,3.089975 14.584855,3.357975 C15.278955,3.545125 15.972855,3.734675 16.659555,3.946625 C17.314605,4.148825 17.957705,4.389325 18.610755,4.598475 C19.319155,4.825375 20.026155,5.062575 20.746705,5.244075 C21.280455,5.378525 21.834405,5.434025 22.380505,5.517125 C22.480155,5.532275 22.522155,5.573225 22.522405,5.666675 C22.523855,6.232475 22.525005,6.798275 22.5255051,7.364075 C22.5255051,7.468425 22.467055,7.480525 22.397405,7.427525 C22.255555,7.319525 22.120405,7.202675 21.982105,7.089975 C21.653305,6.821875 21.288505,6.741025 20.871855,6.844675 C20.270705,6.994275 19.716655,7.264975 19.144655,7.489475 C18.406055,7.779375 17.673605,8.085625 16.929805,8.361325 C16.513705,8.515575 16.084205,8.639275 15.653305,8.746875 C14.832555,8.951775 13.998905,9.088575 13.150905,9.100575 C12.452355,9.110425 11.752205,9.123475 11.055055,9.088525 C10.517205,9.061625 9.983105,8.961875 9.447155,8.895975 C9.318605,8.880125 9.189405,8.869975 9.060505,8.857225 C9.054305,8.871325 9.048155,8.885375 9.041955,8.899475 C9.109105,8.974725 9.174805,9.051325 9.243755,9.124925 C9.740905,9.655725 10.239405,10.185275 10.736155,10.716475 C11.085205,11.089775 11.429605,11.467525 11.780855,11.838725 C12.258055,12.343025 12.726905,12.856075 13.222305,13.341975 C14.260105,14.359925 15.450605,15.142875 16.842005,15.595725 C17.600555,15.842675 18.374005,15.928025 19.167405,15.785575 C20.352655,15.572825 21.141605,14.416975 20.875155,13.247625 C20.682755,12.403525 20.051155,12.126325 19.262505,12.322975 C19.234205,12.330025 19.209005,12.349375 19.148355,12.380325 C19.275405,12.424375 19.370105,12.450075 19.458755,12.489275 C19.774405,12.628725 19.957305,12.885225 20.049155,13.205525 C20.144755,13.538975 20.118155,13.881475 20.009955,14.201875 C19.851205,14.671925 19.516905,14.973025 19.008955,15.019875 C18.522305,15.064675 18.053505,15.004975 17.718255,14.590375 C17.527505,14.354475 17.415605,14.076575 17.360355,13.777275 C17.273155,13.305175 17.335655,12.848525 17.523705,12.411875 C17.699255,12.004275 17.987555,11.682275 18.355655,11.439475 C19.117605,10.936925 19.927955,10.941975 20.736555,11.287075 C21.257655,11.509525 21.596055,11.938025 21.824555,12.454675 C22.025505,12.909075 22.108205,13.387425 22.091055,13.877125 C22.054955,14.909225 21.609305,15.733275 20.755005,16.316225 C20.280655,16.639875 19.738655,16.801675 19.169555,16.875625 C18.563405,16.954325 17.957105,16.948325 17.352655,16.873175 C16.599005,16.779525 15.886955,16.542425 15.206605,16.208375 C14.410205,15.817425 13.695355,15.307575 13.024055,14.730125 C12.307405,14.113675 11.629705,13.457175 10.996155,12.757375 C10.547505,12.261875 10.129755,11.738575 9.694955,11.230525 C9.368105,10.848475 9.032955,10.473575 8.707055,10.090725 C8.271555,9.579175 7.780105,9.125975 7.266755,8.695425 C7.130055,8.580775 6.982005,8.479575 6.837755,8.374125 C6.812755,8.355825 6.780605,8.347325 6.717855,8.319025" id="Fill-3" fill="#FFFFFF" mask="url(#mask-6)"></path>
                    <path d="M21.1746,4.061315 C20.436,4.073465 19.5854,3.938415 18.7474,3.700965 C18.1675,3.536715 17.5809,3.396215 17.00025,3.234565 C16.26755,3.030565 15.5405,2.806015 14.8061,2.608615 C14.0672,2.410015 13.32435,2.221465 12.55555,2.175865 C12.0412,2.145365 11.525,2.084715 11.01235,2.105015 C10.48715,2.125815 9.9634,2.217115 9.4423,2.298365 C8.5377,2.439415 7.68515,2.768415 6.81875,3.047315 C6.26485,3.225615 5.7081,3.396365 5.14825,3.554965 C4.32305,3.788665 3.48605,3.976965 2.63,4.044715 C2.1798,4.080315 1.72465,4.054965 1.2718,4.055265 C1.21805,4.055315 1.1643,4.043565 1.1105,4.037815 C0.8282,4.007865 0.82505,4.078865 0.8183,3.712315 C0.81525,3.546615 0.82935,3.380515 0.8373,3.214665 C0.8418,3.120565 0.89685,3.084215 0.9869,3.089715 C1.23605,3.104915 1.4871,3.105065 1.73395,3.137315 C2.198,3.197915 2.6485,3.142715 3.0887,3.002415 C3.8885,2.747565 4.68665,2.487265 5.4825,2.220465 C6.54265,1.865015 7.5981,1.495415 8.65915,1.142765 C9.48235,0.869215 10.33355,0.756765 11.19905,0.722865 C12.40465,0.675765 13.56825,0.900465 14.71245,1.246165 C15.4881,1.480565 16.2567,1.738465 17.02645,1.991815 C17.9939,2.310265 18.95685,2.642615 19.92655,2.953965 C20.58135,3.164115 21.253,3.269165 21.94455,3.184115 C22.06395,3.169465 22.1857,3.174865 22.30595,3.166115 C22.38835,3.160065 22.4277,3.193865 22.44085,3.274415 C22.47165,3.463165 22.5127,3.650515 22.5361,3.840065 C22.5413,3.882065 22.5008,3.957365 22.4638,3.971565 C22.35385,4.013715 22.236,4.052215 22.11965,4.057465 C21.8497,4.069565 21.5788,4.061315 21.1746,4.061315" id="Fill-5" fill="#FFFFFF" mask="url(#mask-6)"></path>
                    <path d="M4.522305,5.789175 C4.562655,5.766875 4.587905,5.747925 4.616305,5.737925 C5.466555,5.438025 6.316505,5.137075 7.168105,4.841025 C7.446505,4.744225 7.729805,4.661575 8.009955,4.569775 C8.121105,4.533325 8.148355,4.576925 8.124405,4.677775 C8.054205,4.972925 8.052655,5.270025 8.091955,5.569525 C8.187955,6.301375 8.493555,6.918725 9.121255,7.329875 C9.648005,7.674875 10.232905,7.857975 10.872755,7.873375 C11.454905,7.887375 11.987705,7.757975 12.460955,7.418875 C13.015205,7.021725 13.433905,6.529075 13.463605,5.808925 C13.485255,5.285125 13.375105,4.785025 13.114805,4.323375 C13.089455,4.278475 13.077555,4.226025 13.048955,4.148625 C13.266155,4.183975 13.458155,4.206375 13.646055,4.247425 C14.210205,4.370625 14.779155,4.478525 15.334255,4.634875 C15.929605,4.802575 16.512755,5.014675 17.098705,5.214575 C17.676905,5.411825 18.252755,5.615975 18.828055,5.821475 C19.062755,5.905325 19.293405,6.000325 19.525355,6.091675 C19.546405,6.099975 19.563355,6.118825 19.603805,6.148675 C19.388605,6.247775 19.192205,6.342275 18.992655,6.429325 C18.237905,6.758625 17.476455,7.074475 16.683505,7.297475 C15.975855,7.496375 15.260755,7.673175 14.541605,7.824975 C14.026305,7.933775 13.500255,7.996575 12.976455,8.059275 C12.367855,8.132075 11.755905,8.123325 11.145405,8.073025 C10.448105,8.015525 9.752905,7.926775 9.082055,7.726775 C8.525605,7.560925 7.975455,7.366075 7.438355,7.145425 C6.731855,6.855125 6.039455,6.530275 5.344055,6.213425 C5.087305,6.096475 4.839255,5.960225 4.587505,5.832325 C4.570255,5.823575 4.555005,5.811025 4.522305,5.789175" id="Fill-7" fill="#272727" mask="url(#mask-6)"></path>
                </g>
            </g>
        </g>
    </g>
</svg>